<svg xmlns="http://www.w3.org/2000/svg" width="227.96" height="13.502" viewBox="0 0 227.96 13.502"><path d="M6.5-7.67a.982.982,0,0,0,.975-.975A.982.982,0,0,0,6.5-9.62a.982.982,0,0,0-.975.975A.982.982,0,0,0,6.5-7.67Zm0,2.353L2.21-9.607l-.377.377,4.29,4.29-4.3,4.3L2.2-.26l4.3-4.3,4.29,4.29.377-.377L6.877-4.94l4.29-4.29-.377-.377ZM3.77-4.94A.982.982,0,0,0,2.8-5.915a.982.982,0,0,0-.975.975.982.982,0,0,0,.975.975A.982.982,0,0,0,3.77-4.94Zm5.46,0a.982.982,0,0,0,.975.975.982.982,0,0,0,.975-.975.982.982,0,0,0-.975-.975A.982.982,0,0,0,9.23-4.94ZM6.5-2.21a.982.982,0,0,0-.975.975A.982.982,0,0,0,6.5-.26a.982.982,0,0,0,.975-.975A.982.982,0,0,0,6.5-2.21ZM20.124-.728V-5.642h4.355V-6.825H20.124v-4.056H18.837v4.056h-4.29v1.183h4.29V-.728H13.715V.455H25.324V-.728Zm9.165-5.98h1.443V-7.852H29.289v-2.886H28.158v2.886h-1.6v1.144h1.6v3.9c-.65.273-1.248.507-1.716.663L26.91-.923c1.157-.52,2.639-1.2,4-1.859l-.273-1.066c-.442.182-.91.377-1.352.572ZM33.67-.325c-.832,0-.975-.143-.975-.871V-5.46l1.456-.624V-1.9h1.131V-6.565l1.508-.65c0,1.976-.026,3.185-.078,3.445s-.169.312-.338.312c-.13,0-.481,0-.754-.013a3.733,3.733,0,0,1,.273,1.027,4.006,4.006,0,0,0,1.248-.143c.4-.1.624-.39.689-.936.078-.507.1-2.275.1-4.693l.052-.208-.845-.325-.208.169L36.7-8.4l-1.417.6v-3.094H34.151v3.575l-1.456.611V-9.672H31.551v3.445L30.2-5.655l.455,1.066.9-.377v3.757c0,1.56.455,1.963,2.054,1.963h2.977c1.417,0,1.781-.585,1.95-2.379a3.492,3.492,0,0,1-1.066-.442c-.1,1.417-.234,1.742-.949,1.742Zm11.154-7.2H41.08v1.066h8.9V-7.527H46.072V-8.632h5.083V-9.75H46.072v-1.144H44.824V-9.75H39.871v1.118h4.953ZM50.882-3V-5.59H40.131V-3h1.183V-4.511H49.66V-3Zm-7.709-.962C43-1.82,42.575-.611,39.559.013a3.15,3.15,0,0,1,.663,1.04c3.367-.819,3.991-2.392,4.2-5.018ZM48.139-.286c-.494,0-.585-.052-.585-.429v-3.25H46.345V-.7c0,1.17.325,1.521,1.638,1.521h1.794c1.1,0,1.43-.455,1.56-2.249a3.287,3.287,0,0,1-1.092-.455c-.039,1.4-.13,1.6-.585,1.6ZM60.45-9.412h1.963v1.144H60.45Zm-2.925,0h1.9v1.144h-1.9Zm-2.886,0h1.846v1.144H54.639Zm-1.131-.923v2.99H63.583v-2.99ZM55.458-4.3h6.149V-3.5H55.458Zm0,1.573h6.149v.845H55.458Zm0-3.159h6.149v.819H55.458Zm-1.209-.806v5.6h8.606v-5.6ZM59.436-.416a28.657,28.657,0,0,1,3.7,1.456L64.428.416a41.565,41.565,0,0,0-4.043-1.469Zm-2.964-.65A15.046,15.046,0,0,1,52.624.169a8.494,8.494,0,0,1,.91.9A16.674,16.674,0,0,0,57.577-.572Zm20.436-3.5a4.812,4.812,0,0,0-5.1-4.9A5.635,5.635,0,0,0,66-4.056c0,2.171,1.183,3.6,2.47,3.6s2.366-1.469,3.146-4.121a25.886,25.886,0,0,0,.78-3.653A3.456,3.456,0,0,1,75.543-4.6,3.739,3.739,0,0,1,72.4-.91a8.035,8.035,0,0,1-1.157.182L72.007.494C75.166.039,76.908-1.833,76.908-4.563Zm-9.594.377a4.346,4.346,0,0,1,3.7-4.017A20.7,20.7,0,0,1,70.3-4.849C69.706-2.847,69.1-2,68.51-2,67.951-2,67.314-2.691,67.314-4.186ZM88.452-8.84h-3.8v-.845h3.8Zm0,1.677h-3.8v-.858h3.8Zm1.118-3.393H83.564v4.264H89.57ZM82.446-4.173c-.4.182-.806.364-1.2.546v-3.38h1.313V-8.151H81.25v-2.626H80.132v2.626H78.7v1.144h1.43v3.874c-.637.273-1.222.52-1.69.7l.468,1.209c1.092-.52,2.5-1.222,3.8-1.885Zm8.034-.468V-5.668H82.355v1.027h1.664a6.978,6.978,0,0,1-2.457,2.392,6.55,6.55,0,0,1,.819.754,8.826,8.826,0,0,0,1.6-1.391h1.092A8.414,8.414,0,0,1,82.264-.221a3.354,3.354,0,0,1,.806.728,9.99,9.99,0,0,0,3.094-3.393h1.027A7.54,7.54,0,0,1,84.721.39a3.88,3.88,0,0,1,.871.676,8.984,8.984,0,0,0,2.613-3.952h.78c-.156,1.833-.325,2.574-.52,2.8-.1.13-.208.143-.4.143A8.688,8.688,0,0,1,87.048,0a2.388,2.388,0,0,1,.273.975,10.236,10.236,0,0,0,1.3-.013A1.131,1.131,0,0,0,89.4.6c.351-.39.546-1.4.754-4,.013-.156.026-.455.026-.455H84.747a5.984,5.984,0,0,0,.481-.78Zm9.828,1.547V-.546h-5.59V-3.094ZM93.535,1.04h1.183V.533h5.59V1.04h1.235V-4.186H93.535Zm1-7.774A13.906,13.906,0,0,0,97.461-9.7a14.881,14.881,0,0,0,3.068,2.964Zm2.249-4.147a14.4,14.4,0,0,1-5.343,4.706,4.646,4.646,0,0,1,.741.962,17.71,17.71,0,0,0,2.093-1.326v.884h6.474v-.923a16.932,16.932,0,0,0,2.106,1.313,5.366,5.366,0,0,1,.793-1.079,14.418,14.418,0,0,1-5.629-4.537Zm13.169,9.256c0-.559.611-.936,1.482-.936a4.19,4.19,0,0,1,1.209.182v.351c0,.819-.3,1.313-1.261,1.313C110.552-.715,109.954-1.014,109.954-1.625Zm3.9-8.463h-1.469a6.4,6.4,0,0,1,.078.832v1.534c-.364.013-.715.026-1.079.026a21.165,21.165,0,0,1-2.249-.117l.013,1.222c.754.052,1.469.091,2.223.091.364,0,.728-.013,1.092-.026.026,1.014.078,2.132.13,3.042a6.919,6.919,0,0,0-1.053-.078c-1.742,0-2.769.884-2.769,2.08,0,1.248,1.027,1.976,2.782,1.976,1.807,0,2.379-1.027,2.379-2.223v-.065a12.36,12.36,0,0,1,1.807,1.443l.7-1.092A8.577,8.577,0,0,0,113.88-3.12c-.039-1-.13-2.171-.143-3.471.754-.052,1.482-.143,2.158-.247V-8.1a20.108,20.108,0,0,1-2.158.3c.013-.6.026-1.157.039-1.482C113.789-9.542,113.815-9.828,113.854-10.088Zm-6.383.117-1.417-.13c-.013.338-.065.754-.1,1.079a39.889,39.889,0,0,0-.572,5.447,15.215,15.215,0,0,0,.507,4.134l1.157-.091c-.013-.156-.026-.351-.039-.481a3.356,3.356,0,0,1,.065-.6c.143-.663.585-1.989.936-2.977l-.65-.507c-.208.481-.494,1.131-.676,1.664a8.457,8.457,0,0,1-.1-1.391,34.367,34.367,0,0,1,.637-5.148C107.263-9.2,107.393-9.737,107.471-9.971ZM121.845.221c2.5,0,4.046-2.261,4.046-6.358,0-4.08-1.547-6.273-4.046-6.273-2.482,0-4.046,2.176-4.046,6.273S119.363.221,121.845.221Zm0-1.547c-1.275,0-2.176-1.309-2.176-4.811s.9-4.726,2.176-4.726,2.176,1.224,2.176,4.726S123.12-1.326,121.845-1.326Zm8.966-8.892-1.287.533c.611,1.391,1.261,2.86,1.859,3.952-1.326.936-2.21,2-2.21,3.38,0,2.08,1.846,2.795,4.355,2.795A24.819,24.819,0,0,0,137.662.13l.013-1.482a19.367,19.367,0,0,1-4.2.468c-1.937,0-2.912-.6-2.912-1.612,0-.949.728-1.768,1.872-2.522,1.235-.806,2.964-1.612,3.822-2.054.416-.208.78-.4,1.118-.611l-.715-1.183a7.209,7.209,0,0,1-1.04.689c-.676.377-1.963,1.014-3.107,1.7A30.374,30.374,0,0,1,130.811-10.218Zm11.583,1.092v1.339c1.04.091,2.158.143,3.484.143,1.222,0,2.717-.078,3.614-.156V-9.152c-.962.1-2.353.182-3.614.182A33.206,33.206,0,0,1,142.394-9.126Zm.767,5.356-1.339-.13a7.963,7.963,0,0,0-.26,1.833c0,1.7,1.508,2.639,4.3,2.639a19.318,19.318,0,0,0,4.459-.455l-.013-1.43a17.253,17.253,0,0,1-4.485.507c-2,0-2.912-.637-2.912-1.56A4.991,4.991,0,0,1,143.161-3.77Zm6.682-6.76-.845.351a13.241,13.241,0,0,1,1.04,1.807l.858-.377A18.838,18.838,0,0,0,149.843-10.53Zm1.482-.546-.832.351a13.6,13.6,0,0,1,1.066,1.794l.845-.377A20.176,20.176,0,0,0,151.325-11.076Zm4.368.923v1.222h3.094a14.364,14.364,0,0,0,.169,1.547l-.663-.117c-.754,3.523-2.327,6.084-5.122,7.527A9.246,9.246,0,0,1,154.289,1a11.465,11.465,0,0,0,4.992-6.851A11.03,11.03,0,0,0,164.26.975a6.108,6.108,0,0,1,.975-1.027c-4.953-2.925-5.252-7.748-5.252-10.1Zm16.458,2v-2.73h-1.274v2.73h-4.1v1.235h4.03a8.344,8.344,0,0,1-4.42,7.033,5.111,5.111,0,0,1,.936.975A9.41,9.41,0,0,0,172.1-6.916h4.069c-.221,4.251-.494,6.032-.936,6.448a.729.729,0,0,1-.6.195c-.325,0-1.118,0-1.976-.078A3.046,3.046,0,0,1,173.087.9a15.483,15.483,0,0,0,2.067,0,1.581,1.581,0,0,0,1.2-.6c.572-.663.819-2.587,1.1-7.852.013-.169.026-.6.026-.6Zm15.86-1.339L186.8-10.569a7.613,7.613,0,0,1-.845.975c-.884.871-2.769,2.379-3.77,3.211-1.235,1.027-1.365,1.651-.1,2.7C183.292-2.665,185.229-1,186.1-.117c.338.338.676.7.988,1.053l1.183-1.079c-1.352-1.352-3.718-3.237-4.823-4.147-.767-.663-.767-.832-.026-1.469.923-.78,2.717-2.2,3.588-2.925C187.27-8.892,187.686-9.243,188.011-9.49Zm10.7,6.526-1.222-.117a8.555,8.555,0,0,0-.208,1.625c0,1.287,1.144,1.976,3.263,1.976a20.253,20.253,0,0,0,2.574-.182l.039-1.313a14.813,14.813,0,0,1-2.6.26c-1.664,0-2.015-.533-2.015-1.118A4.772,4.772,0,0,1,198.71-2.964Zm-1.482-7.163-1.56-.117a5.462,5.462,0,0,1-.052,1.183c-.026.247-.091.572-.169.962-.442.039-.884.052-1.287.052a12.11,12.11,0,0,1-1.586-.1l.026,1.274c.468.039.936.052,1.547.052.325,0,.676-.013,1.04-.026-.091.429-.208.858-.312,1.261a28.473,28.473,0,0,1-2.21,5.824l1.43.481a40.741,40.741,0,0,0,2.054-5.98c.143-.546.286-1.144.4-1.7a23.032,23.032,0,0,0,2.626-.442V-8.684a22.8,22.8,0,0,1-2.353.442c.052-.286.1-.546.156-.767C197.033-9.269,197.15-9.8,197.228-10.127Zm1.027,3.952v1.209a21.892,21.892,0,0,1,2.457-.13,16.52,16.52,0,0,1,2.21.156l.039-1.248a22.034,22.034,0,0,0-2.275-.1C199.854-6.292,198.957-6.24,198.255-6.175Zm3.3-3.562-.845.351a14.754,14.754,0,0,1,1.04,1.807l.858-.377A20.637,20.637,0,0,0,201.557-9.737Zm1.482-.559-.832.351a16.5,16.5,0,0,1,1.066,1.807l.845-.377A19.149,19.149,0,0,0,203.039-10.3ZM211.4-9.217c.091.26.208.6.338,1a26.822,26.822,0,0,1-5.083-.169l.026,1.313a34.185,34.185,0,0,0,5.512.039,17.889,17.889,0,0,0,1.417,2.7c-.442-.052-1.365-.13-2.054-.182l-.091,1.079a31.174,31.174,0,0,1,3.276.39l.65-.936a6.158,6.158,0,0,1-.624-.767,14.487,14.487,0,0,1-1.339-2.418,22.4,22.4,0,0,0,2.535-.507l-.156-1.3A16.062,16.062,0,0,1,213-8.346a14.137,14.137,0,0,1-.559-2.145l-1.4.169C211.177-9.932,211.307-9.5,211.4-9.217Zm-2.47,5.1-1.287-.286a5.1,5.1,0,0,0-.65,2.275c0,1.807,1.612,2.756,4.16,2.769A17.756,17.756,0,0,0,214.57.351l.065-1.3a16.439,16.439,0,0,1-3.406.312c-1.872-.013-2.925-.52-2.925-1.69A3.29,3.29,0,0,1,208.928-4.121ZM220.8-9.165l-1.586-.026a6.651,6.651,0,0,1,.1,1.222c0,.78.013,2.34.143,3.484.351,3.419,1.56,4.667,2.873,4.667.949,0,1.755-.767,2.574-2.99l-1.027-1.209c-.3,1.183-.871,2.6-1.521,2.6-.871,0-1.4-1.378-1.6-3.419a29.109,29.109,0,0,1-.091-2.925A10.644,10.644,0,0,1,220.8-9.165Zm6.656.325-1.287.429c1.313,1.56,2.054,4.446,2.275,6.682l1.339-.52A14.16,14.16,0,0,0,227.453-8.84Z" transform="translate(-1.82 12.41)" fill="#b5b9be"/></svg>