<svg xmlns="http://www.w3.org/2000/svg" width="121" height="30.453" viewBox="0 0 121 30.453"><g transform="translate(-78.986 -211.576)"><path d="M99.724,252.26a13.827,13.827,0,0,1-6.6,1.6,13.167,13.167,0,0,1-9.793-3.663,13.311,13.311,0,0,1-4.348-10.183,13.965,13.965,0,0,1,4.219-10.477,13.67,13.67,0,0,1,9.788-3.584,13.426,13.426,0,0,1,6.577,1.6l.038,6.086a8.59,8.59,0,0,0-6.465-2.963c-5.365.033-8.821,4.459-8.791,9.384a8.846,8.846,0,0,0,9.105,9.073,8.087,8.087,0,0,0,6.228-2.962Z" transform="translate(0 -11.834)" fill="#e51a3f"/><path d="M233.188,280.834a9.341,9.341,0,0,1,.084,13.574,11.273,11.273,0,0,1-14.014.087,9.341,9.341,0,0,1-.084-13.574,11.273,11.273,0,0,1,14.014-.087Zm-2.08,6.82a4.885,4.885,0,1,0-4.855,4.915A4.837,4.837,0,0,0,231.108,287.653Z" transform="translate(-113.014 -55.03)" fill="#e51a3f"/><path d="M356.243,213.95l.181,29.189-4.885.03-.181-29.189Z" transform="translate(-224.183 -1.954)" fill="#b5b9be"/><path d="M421.142,290.3c-.513,1.285-2.449,5.421-8.495,5.458a9.075,9.075,0,0,1-6.662-2.4,8.736,8.736,0,0,1-2.765-6.75,9.233,9.233,0,0,1,2.6-6.823,8.883,8.883,0,0,1,6.511-2.483,8.287,8.287,0,0,1,6.784,2.8,10.364,10.364,0,0,1,2.124,6.794l0,.4-12.973.08a5.117,5.117,0,0,0,.859,2.918,4.127,4.127,0,0,0,3.494,1.62,4.47,4.47,0,0,0,4.03-2.307Zm-4.522-6.1a4.159,4.159,0,0,0-8.208.051Z" transform="translate(-266.87 -54.097)" fill="#b5b9be"/><path d="M537.734,277.1l4.885-.03.107,17.337-4.885.03-.014-2.242a6.219,6.219,0,0,1-5.308,2.836c-5.325.033-8.875-4.109-8.906-9.194-.032-5.125,3.426-9.231,8.551-9.262a6.28,6.28,0,0,1,5.583,2.768Zm-9.076,8.705a4.806,4.806,0,1,0,4.774-4.915A4.748,4.748,0,0,0,528.658,285.807Z" transform="translate(-365.962 -53.5)" fill="#b5b9be"/><path d="M668.919,211.606l4.885-.03.181,29.189-4.885.03-.014-2.242a6.219,6.219,0,0,1-5.308,2.836c-5.325.033-8.875-4.109-8.906-9.194-.032-5.125,3.426-9.231,8.551-9.262a6.28,6.28,0,0,1,5.583,2.768Zm-9,20.557a4.806,4.806,0,1,0,4.775-4.915A4.748,4.748,0,0,0,659.917,232.163Z" transform="translate(-473.999 0)" fill="#b5b9be"/></g></svg>