<svg xmlns="http://www.w3.org/2000/svg" xmlns:xlink="http://www.w3.org/1999/xlink" width="1005.676" height="96.285" viewBox="0 0 1005.676 96.285">
  <defs>
    <style>
      .cls-1 {
        fill: #fff;
      }

      .cls-2 {
        filter: url(#パス_1436);
      }

      .cls-3 {
        filter: url(#パス_1435);
      }
    </style>
    <filter id="パス_1435" x="0" y="13.107" width="486.509" height="82.722" filterUnits="userSpaceOnUse">
      <feOffset dy="3" input="SourceAlpha"/>
      <feGaussianBlur stdDeviation="3" result="blur"/>
      <feFlood flood-opacity="0.18"/>
      <feComposite operator="in" in2="blur"/>
      <feComposite in="SourceGraphic"/>
    </filter>
    <filter id="パス_1436" x="485.666" y="0" width="520.01" height="96.285" filterUnits="userSpaceOnUse">
      <feOffset dy="3" input="SourceAlpha"/>
      <feGaussianBlur stdDeviation="3" result="blur-2"/>
      <feFlood flood-opacity="0.18"/>
      <feComposite operator="in" in2="blur-2"/>
      <feComposite in="SourceGraphic"/>
    </filter>
  </defs>
  <g id="グループ_1558" data-name="グループ 1558" transform="translate(-212.794 -278.45)">
    <g class="cls-3" transform="matrix(1, 0, 0, 1, 212.79, 278.45)">
      <path id="パス_1435-2" data-name="パス 1435" class="cls-1" d="M65.55-32.775v-8.487H37.329c.483-6,.552-11.8.621-17.112H28.98c-.069,5.244,0,11.109-.552,17.112H4v8.487H27.255C24.771-20.355,18.285-8.349,1.794-.966A25.254,25.254,0,0,1,7.935,6,49.577,49.577,0,0,0,25.944-8.142c4.347,4,9.522,9.453,11.868,13.041L45.4-.759C42.78-4.416,36.984-9.867,32.637-13.524L26.979-9.591a51.421,51.421,0,0,0,7.935-17.25C40.227-12.006,48.3-.483,61.272,6a32.943,32.943,0,0,1,6.141-7.659C54.51-7.245,46.092-18.837,41.538-32.775Zm57.477-14.076H107.364v-3.312h15.663Zm0,8.763H107.364v-3.381h15.663Zm7.866-17.871H100.05v23.6h30.843Zm4.83,32.706V-29.67H94.668v6.417h7.245a32.872,32.872,0,0,1-8.28,9.453,15.878,15.878,0,0,0,1.035-6.279,21.243,21.243,0,0,0-5.037-13.869c1.932-5.382,4.209-12.9,6-18.768l-5.382-3.1-1.173.345H74.106V6h7.107V-48.162H86.6c-1.1,4.692-2.553,10.7-3.933,15.042,3.864,4.623,4.761,8.9,4.761,12.075,0,1.932-.276,3.312-1.035,3.864a3.573,3.573,0,0,1-1.932.621c-.828,0-1.794,0-3.036-.069A17.4,17.4,0,0,1,83.214-9.66,29.162,29.162,0,0,0,87.63-9.8a10.868,10.868,0,0,0,3.657-1.242A48.156,48.156,0,0,1,95.5-6.693a38.422,38.422,0,0,0,7.728-6.969h3.312A39.268,39.268,0,0,1,92.6-.69a50.558,50.558,0,0,1,4.485,5.106,50.66,50.66,0,0,0,16.836-18.078h3.45a36.812,36.812,0,0,1-11.523,14.9A53.512,53.512,0,0,1,110.883,5.8C116.4,1.242,121.3-5.727,124.476-13.662h1.656c-.552,8.073-1.173,11.385-2,12.351a2.056,2.056,0,0,1-1.932.828c-.9,0-2.484-.069-4.416-.276A17.252,17.252,0,0,1,119.577,6,46.509,46.509,0,0,0,126.2,5.8a6.348,6.348,0,0,0,4.209-2.415c1.725-1.932,2.622-7.383,3.312-20.631l.207-2.76h-26.22a29.188,29.188,0,0,0,1.725-3.243Zm55.269-32.775a85.594,85.594,0,0,1-8,17.25l7.176,2.691c2.967-4.209,6.417-10.833,9.522-16.974ZM161.667-38.847c-1.173-4.692-4.623-11.523-7.728-16.7l-7.383,2.829c2.967,5.451,6.072,12.558,7.107,17.043Zm26.22,36.915c-2.277,0-2.622-.414-2.622-2.829V-25.53H203.55v-7.728H176.364V-58.443h-8.28v25.185h-26.5v7.728h16.836C157.458-14.283,155.6-5.8,139.794-1.1a23.114,23.114,0,0,1,4.968,7.176C162.84,0,166.014-11.04,167.187-25.53h9.8V-4.692c0,7.866,1.932,10.488,9.729,10.488h8.211c6.831,0,8.9-3.243,9.729-15.318a25.27,25.27,0,0,1-7.521-3.312c-.276,9.384-.69,10.9-2.9,10.9ZM245.433-19.6h-8.487v-7.8h8.487Zm14.835-7.8V-29.6a48.082,48.082,0,0,0,8.487,5.175,31.3,31.3,0,0,1,5.658-7.107,42.341,42.341,0,0,1-10.695-6.279,113.263,113.263,0,0,0,9.108-7.452l-6-4.278A66.836,66.836,0,0,1,259.1-42.09c-1.1-1.173-2.139-2.346-3.105-3.588,2.829-2.07,6-4.761,8.832-7.314l-6.21-4.416a65.158,65.158,0,0,1-6.141,6.417,47.931,47.931,0,0,1-3.45-7.383l-7.383,2.07A63.125,63.125,0,0,0,254.2-35.19H229.218a47.293,47.293,0,0,0,11.247-18.354l-5.52-2.553-1.449.276H215.487v7.038h14.076a38.6,38.6,0,0,1-4.347,6.21c-1.932-1.656-4.554-3.657-6.624-5.106L213.417-43.4a73.646,73.646,0,0,1,6.831,5.865,42.691,42.691,0,0,1-11.454,7.107,35.681,35.681,0,0,1,4.968,6.21,56.4,56.4,0,0,0,9.177-5.451v2.277h5.8v7.8H213.969v7.521h13.662c-1.725,4.623-5.865,8.9-15.387,11.8a31.275,31.275,0,0,1,5.244,6.555C230.253,2,234.807-4.83,236.325-12.075h9.108v7.521c0,7.659,1.863,10.074,9.315,10.074h7.521c6.072,0,8.211-2.76,9.039-11.868a20.432,20.432,0,0,1-7.383-3.243c-.276,6.486-.621,7.866-2.415,7.866H256.2c-1.932,0-2.208-.414-2.208-2.9v-7.452h14.7V-19.6h-14.7v-7.8Zm27.255-14.49h18.768v14.352h8V-41.883H333.27v8.556h7.59V-47.334H314.3v-2.622h21.528v-6.072H284.97v6.072h21.321v2.622H280.278v14.007h7.245Zm29.394,13.662h15.042v-4.485H316.917Zm0-11.316v4.416h13.455v-4.416Zm-13.11,0H290.214v4.416h13.593ZM288.9-28.221h14.9v-4.485H288.9Zm5.52,19.044v-2.967h11.454v2.967Zm11.454-10.971v3.036H294.423v-3.036Zm20.355,3.036H313.743v-3.036h12.489ZM313.743-9.177v-2.967h12.489v2.967Zm4.968,8.694c-4.209,0-4.968-.414-4.968-2.967v-.207h20.631V-25.668H286.626V-.621h7.8V-3.657h11.454v.207c0,7.245,2.622,9.246,12.075,9.246h14.49c7.521,0,9.729-2.277,10.695-10.557a20.983,20.983,0,0,1-6.831-2.622c-.483,5.865-1.1,6.9-4.554,6.9Zm60.582-54.579H348.8v7.452h30.5Zm-9.315,19.941v8.763H358.869v-8.763Zm7.935,16.146v-23.46H351.072v17.526c0,7.935-.414,18.7-4.968,26.082a35.548,35.548,0,0,1,6.486,4.9c4.278-6.762,5.727-16.629,6.141-25.047ZM411.861-35.19H389.712v-8.97a113.307,113.307,0,0,0,21.735-7.383l-7.245-6.21c-4,2.415-10.419,4.9-16.836,6.762L381.708-52.3v19.044c0,10.212-.966,23.874-10.557,33.6a20.275,20.275,0,0,1,6.072,5.52c9.177-9.177,11.73-22.563,12.351-33.12h8V6h8.142V-27.255h6.141Zm18.792,24.21c-2.257,0-4.7-2.989-4.7-9.089,0-6.649,5.307-15.433,15.311-17.507a96.961,96.961,0,0,1-3.233,14.64C435.594-14.762,433.154-10.98,430.653-10.98ZM447.245,2.5C462.495.183,470.3-8.845,470.3-21.533c0-13.176-9.455-23.607-24.4-23.607-15.677,0-27.816,11.956-27.816,25.864,0,10.187,5.673,17.568,12.322,17.568,6.588,0,11.834-7.442,15.433-19.642a131.284,131.284,0,0,0,3.6-16.409c8.113,1.4,12.627,7.625,12.627,15.982,0,8.784-5.978,14.335-13.725,16.165-1.586.366-3.294.671-5.612.976Z" transform="translate(7.21 77.55)"/>
    </g>
    <g class="cls-2" transform="matrix(1, 0, 0, 1, 212.79, 278.45)">
      <path id="パス_1436-2" data-name="パス 1436" class="cls-1" d="M-191.08-62.815a30.687,30.687,0,0,1-8.84,1.105h-29.92a94.963,94.963,0,0,1-10.03-.595v12.07c1.785-.085,6.46-.595,10.03-.595h28.815C-202.9-44.8-208.08-36.38-213.69-30c-7.99,8.925-21.165,19.21-34.85,24.395l8.755,9.18c11.645-5.525,22.95-14.365,31.96-23.885A193.832,193.832,0,0,1-186.4,3.74l9.69-8.415a238.956,238.956,0,0,0-23.715-24.31A124.972,124.972,0,0,0-187.085-52.36a40.16,40.16,0,0,1,2.975-5.27Zm91.715,7.4a4.916,4.916,0,0,1-4.845-4.93,4.916,4.916,0,0,1,4.845-4.93,4.934,4.934,0,0,1,4.93,4.93A4.934,4.934,0,0,1-99.365-55.42Zm-45.22-.935a64.865,64.865,0,0,1,.68-8.84h-12.58a71.517,71.517,0,0,1,.68,8.84V-10.03c0,7.31,4.25,11.39,11.645,12.665a93.292,93.292,0,0,0,14.28,1.02c9.35,0,22.27-.6,30.26-1.785V-10.54c-6.97,1.87-20.74,2.975-29.58,2.975a79.5,79.5,0,0,1-9.86-.51c-3.825-.765-5.525-1.7-5.525-5.355V-29.155a293.4,293.4,0,0,0,33.32-10.37c2.8-1.02,6.63-2.635,9.945-3.995l-3.485-8.245a9.763,9.763,0,0,0,5.44,1.615,10.23,10.23,0,0,0,10.2-10.2,10.23,10.23,0,0,0-10.2-10.2,10.157,10.157,0,0,0-10.115,10.2,10.348,10.348,0,0,0,2.465,6.715,50.593,50.593,0,0,1-8.16,3.91,214.364,214.364,0,0,1-29.41,9.435ZM-77.18-26.01c3.145-.255,8.84-.425,13.685-.425H-17.85c3.57,0,7.9.34,9.945.425V-39.355c-2.21.17-6.035.51-9.945.51H-63.5c-4.42,0-10.625-.255-13.685-.51ZM77.1-55.335a112.571,112.571,0,0,0-7.99-12.58L62.05-64.6a79.588,79.588,0,0,1,7.9,12.75ZM65.705-50.4C63.75-54.23,60.35-59.67,57.97-63.24l-7.14,3.06a69.255,69.255,0,0,1,7.48,13.09ZM35.7-55.76a92.439,92.439,0,0,1,.765-10.285H23.2a59.98,59.98,0,0,1,.85,10.285V-6.885A92.042,92.042,0,0,1,23.2,4.93H36.55c-.425-3.485-.85-9.435-.85-11.815V-30.94c9.18,3.06,21.93,7.99,30.77,12.665L71.23-30.09C63.41-33.915,47-39.95,35.7-43.35Zm115.855.68h-10.71v-5.865h10.71Zm-19.125,0H122.145v-5.865H132.43Zm-18.7,0h-10.2v-5.865h10.2Zm47.6-13.43H94.18V-47.6h67.15ZM108.97-17.425H146.2v4.25H108.97Zm0-10.2H146.2v4.25H108.97Zm0-10.115H146.2v4.165H108.97ZM156.825-6.8V-44.115H98.77V-6.8h13.09C105.825-3.91,96.56-1.19,88.23.34a68.32,68.32,0,0,1,7.48,7.395c8.84-2.465,19.975-6.545,27.115-11.22L115.43-6.8h23.715L132.26-2.38a181.893,181.893,0,0,1,23.885,9.86L167.11,2.465C161.16-.17,151.385-3.91,142.375-6.8ZM211.14-57.885h2.975v6.63H239.19a96.409,96.409,0,0,1-7.31,25.33,102.5,102.5,0,0,1-7.82-25.16l-9.69,1.955c2.635,12.835,6.29,24.225,11.475,33.66A46.083,46.083,0,0,1,211.14-1.955ZM189.295-23.2h12.07v7.65c-4.08.51-8.16,1.105-12.07,1.615Zm0-17.51h12.07v8.5h-12.07Zm12.07-17.17v8.075h-12.07v-8.075Zm42.33-3.57-1.7.255H216.58v-6.035H173.91v9.35h5.78V-12.75c-2.89.34-5.525.6-7.82.85l1.955,10.115c7.82-1.19,17.765-2.72,27.54-4.42v13.6h9.775V-.6A40.43,40.43,0,0,1,216.75,6.8a58.229,58.229,0,0,0,15.13-13,53.624,53.624,0,0,0,14.62,13,36.691,36.691,0,0,1,6.97-8.33A46.755,46.755,0,0,1,238.085-15.3c6.375-11.39,10.455-26.01,12.24-44.54Z" transform="translate(743.21 76.55)"/>
    </g>
  </g>
</svg>
