<svg height="55.506" viewBox="0 0 563.327 55.506" width="563.327" xmlns="http://www.w3.org/2000/svg" xmlns:xlink="http://www.w3.org/1999/xlink"><filter id="a" filterUnits="userSpaceOnUse" height="53.454" width="90.96" x="0" y="2.052"><feOffset dy="3"/><feGaussianBlur result="blur" stdDeviation="3"/><feFlood flood-opacity=".18"/><feComposite in2="blur" operator="in"/><feComposite in="SourceGraphic"/></filter><filter id="b" filterUnits="userSpaceOnUse" height="53.266" width="347.374" x="215.953" y="1.158"><feOffset dy="3"/><feGaussianBlur result="blur-2" stdDeviation="3"/><feFlood flood-opacity=".18"/><feComposite in2="blur-2" operator="in"/><feComposite in="SourceGraphic"/></filter><g filter="url(#a)" transform="translate(.002)"><path d="m26.98-26.524h-16.112v-1.558h16.112zm0 4.332h-16.112v-1.6h16.112zm4.52-8.778h-24.964v11.67h24.964zm-2.164 21.508a15.911 15.911 0 0 1 -2.584 3.724 14.712 14.712 0 0 1 -2.546-3.724zm-20.136 4.522h4.94v1.482c-1.672.152-3.344.266-4.94.38zm0-4.712h4.94v1.6h-4.94zm4.94-4.674v1.52h-4.94v-1.52zm17.86 1.254-.76.152h-11.822v3.458h3.5l-2.508.684a23.273 23.273 0 0 0 3.458 5.624 19.509 19.509 0 0 1 -5.4 2.736v-13.908h17.4v-3.574h-33.778v3.572h2.964v11.554c-1.178.114-2.318.152-3.306.228l.342 3.876c3.344-.3 7.676-.684 12.046-1.1v3.076h4.332v-3.078a16.8 16.8 0 0 1 2.014 3.04 24.759 24.759 0 0 0 6.46-3.534 21.289 21.289 0 0 0 7.068 3.534 18.718 18.718 0 0 1 2.66-3.534 21.244 21.244 0 0 1 -6.688-2.812 22.654 22.654 0 0 0 4.788-8.93zm42.18-17.594h-19.422v4.18h19.418zm-5.59 15.656h-8.284v-4.6h8.284zm4.41-8.55h-16.836v12.5h16.836zm-3.84 21.66c.912-1.862 1.938-4.9 2.964-7.676l-4.446-.95a41.736 41.736 0 0 1 -2.318 7.752zm-6.384-1.14a26.7 26.7 0 0 0 -1.9-7.258l-3.838.912a30.947 30.947 0 0 1 1.71 7.372zm-7.144-2.47c-.836-.95-4.18-4.978-5.7-6.536.076-.494.114-.95.152-1.444h4.978v-4.18h-4.712v-5.89h4.256v-4.066h-8.284c.3-1.216.608-2.47.836-3.724l-4.256-.8c-.722 4.294-2.128 8.74-4.066 11.476a23.376 23.376 0 0 1 3.838 2.09 30.536 30.536 0 0 0 2.356-4.976h1.026v5.89h-6.456v4.18h6.232c-.532 4.636-2.09 9.766-6.536 13.6a15.551 15.551 0 0 1 3.116 3.192 21.616 21.616 0 0 0 6.5-10.64 62.329 62.329 0 0 1 3.838 5.586zm-2.622 3.91v4.18h21.7v-4.18z" fill="#fff" transform="translate(7.25 40.2)"/></g><g filter="url(#b)" transform="translate(.002)"><path d="m27.38-19.24-2.738 1.147a28.548 28.548 0 0 1 2.886 5.143l2.812-1.258a48.491 48.491 0 0 0 -2.96-5.032zm4.144-1.7-2.7 1.258a32.55 32.55 0 0 1 3.034 4.995l2.775-1.332a55.345 55.345 0 0 0 -3.109-4.923zm-28.824-4.368.481 5.032c4.255-.925 11.951-1.739 15.133-2.072a14.529 14.529 0 0 0 -5.4 11.285c0 7.955 7.252 12.1 14.948 12.58l1.7-5.069c-6.216-.3-11.84-2.479-11.84-8.51a11.122 11.122 0 0 1 7.733-10.249 37.838 37.838 0 0 1 7.067-.481l-.037-4.736c-2.59.111-6.586.333-10.36.629-6.7.592-12.765 1.147-15.836 1.406-.702.074-2.108.148-3.589.185zm44.623 22.015c-.962 0-2.664-1.036-2.664-2.146 0-1.295 1.48-2.812 3.737-3.959.074 1.924.111 3.589.111 4.514 0 1.258-.518 1.591-1.184 1.591zm5.217-13.172c0-1.073 0-2.183.037-3.293a70.764 70.764 0 0 0 6.993-1.147l-.111-4.588a50.178 50.178 0 0 1 -6.734 1.369c.037-.925.074-1.813.111-2.627.074-.925.222-2.516.3-3.182h-5.036a29.086 29.086 0 0 1 .259 3.219c0 .629 0 1.7-.037 3-.74.037-1.443.074-2.109.074a40.142 40.142 0 0 1 -5.069-.3l.074 4.44c1.591.148 3.441.185 5.106.185.592 0 1.258-.037 1.961-.074v3.071c0 .851 0 1.7.037 2.553-4.477 1.965-8.214 5.255-8.214 8.474 0 3.885 5.069 6.956 8.658 6.956 2.368 0 4.034-1.184 4.034-5.735 0-1.258-.111-4.07-.185-6.993a26.011 26.011 0 0 1 6.882-1c3.182 0 5.4 1.443 5.4 3.922 0 2.664-2.368 4.181-5.328 4.7a28.01 28.01 0 0 1 -4.514.259l1.7 4.7a29.853 29.853 0 0 0 4.81-.592c5.809-1.443 8.066-4.7 8.066-9.028 0-5.032-4.44-8.029-10.064-8.029a29.823 29.823 0 0 0 -7.03.962zm9.028-5.92a55.661 55.661 0 0 1 8.806 5.328l2.22-3.774a80.941 80.941 0 0 0 -8.994-5.143zm24.79 6.549-3 .851v-5.328h3.367v-4.033h-3.364v-6.954h-4v6.956h-3.881v4.033h3.885v6.4c-1.665.407-3.219.814-4.477 1.073l.962 4.218c1.073-.3 2.294-.629 3.515-1v8.177c0 .481-.185.629-.629.629a29.168 29.168 0 0 1 -3.036-.037 17.963 17.963 0 0 1 1.073 4.07c2.442.037 4-.111 5.143-.814 1.11-.7 1.443-1.813 1.443-3.848v-9.357c1.184-.333 2.368-.7 3.552-1.073zm10.878 2.886h1.554a33.647 33.647 0 0 0 2.775 9.731c-1.443.3-2.923.592-4.329.851zm9.472.7a36.86 36.86 0 0 1 -3.182 3.256 32.556 32.556 0 0 1 -.925-3.959h6.734v-3.7h-17.205c.037-.777.037-1.554.037-2.257v-7.067h16.613v-3.774h-20.68v10.841c0 5.846-.333 13.949-4.107 19.536a14.041 14.041 0 0 1 3.367 2.516c3-4.329 4.181-10.582 4.588-16.095h1.406v11.288c-1.036.148-1.961.333-2.812.444l.851 3.737c3.145-.666 7.067-1.443 10.8-2.294l-.3-2.775a13.56 13.56 0 0 0 5.661 5.7 15.228 15.228 0 0 1 2.7-3.589 11.264 11.264 0 0 1 -5.439-5.365c1.517-1.036 3.219-2.4 4.773-3.663zm1.073-7.363v-3.587h-14.171v3.589zm11.619-10.209c-.037 1.036-.111 2.516-.3 3.848a88.858 88.858 0 0 0 -1.036 11.729 47.4 47.4 0 0 0 .444 6.1l4.551-.3a22 22 0 0 1 -.185-3.885c.185-4.81 3.959-11.322 8.288-11.322 3.034 0 4.921 3.145 4.921 8.806 0 8.88-5.7 11.544-13.838 12.8l2.775 4.255c9.694-1.776 16.058-6.734 16.058-17.094 0-8.066-3.959-13.061-9.065-13.061-4.144 0-7.326 3.108-9.065 5.92a59.824 59.824 0 0 1 1.48-7.585zm48.988 7.7c-1.147 7.067-4 12.58-9.176 15.651a24.287 24.287 0 0 1 3.4 3.33c4.033-2.812 6.845-6.882 8.695-12.173 1.628 5.18 4.329 9.435 8.88 12.136a19.716 19.716 0 0 1 3.441-3.367c-7.7-3.848-9.916-12.765-10.471-23.236h-10.172v4.144h6.438c.111 1.258.259 2.516.407 3.737zm-9.177-2.778a29.628 29.628 0 0 0 -6.179-5.587l-3.256 2.664a28 28 0 0 1 5.957 5.846zm-.925 7.918h-8.547v4.033h4.255v7.807a52.492 52.492 0 0 1 -5.032 3.4l2.146 4.588c2-1.554 3.626-3 5.254-4.44 2.4 2.886 5.439 3.922 9.99 4.107 4.4.185 11.84.111 16.28-.111a23.044 23.044 0 0 1 1.368-4.437c-4.921.37-13.246.481-17.575.3-3.848-.148-6.623-1.147-8.14-3.626zm36.371 9.916c-.666.925-1.184 1.258-1.924 1.258s-1.369-.7-1.369-1.739c0-2.294 2.22-4.773 6.29-5.4a47.392 47.392 0 0 1 -2.997 5.88zm25.678-2.924c-1.073-.7-2.4-1.591-3.922-2.442a60.285 60.285 0 0 0 .7-6.808l-4.81-.555a23.762 23.762 0 0 1 .037 4c-.037.407-.074.814-.111 1.258a32.111 32.111 0 0 0 -7.881-2.368 70.906 70.906 0 0 1 3.589-7.844 8.576 8.576 0 0 1 1.221-1.554l-2.92-2.297a9.081 9.081 0 0 1 -2.479.555c-1.7.148-5.624.3-7.7.3a29.648 29.648 0 0 1 -3.034-.148l.185 4.736c.925-.148 2.22-.3 3-.333 1.665-.111 4.81-.222 6.253-.259-.851 1.739-1.887 4.218-2.923 6.586-7.363.333-12.506 4.7-12.506 10.36 0 3.7 2.4 5.92 5.624 5.92a6.262 6.262 0 0 0 5.7-3.219 76.189 76.189 0 0 0 4.255-8.806 25.683 25.683 0 0 1 8.584 2.96c-1.221 3.33-3.774 6.845-9.324 9.213l3.922 3.182c4.884-2.553 7.659-5.772 9.287-9.916 1.11.814 2.183 1.7 3.145 2.553zm37.925-17.02a43.786 43.786 0 0 0 -3-5.032l-2.923 1.221a36.917 36.917 0 0 1 3 5.106zm-24.86-2.405a40.567 40.567 0 0 1 -.777 7.77c-1.85.148-3.589.259-4.736.3a34.021 34.021 0 0 1 -3.885 0l.407 4.958c1.147-.185 3.034-.444 4.07-.555.7-.111 1.85-.259 3.145-.407-1.295 5-3.811 12.321-7.363 17.131l4.769 1.918c3.367-5.4 6.031-14.023 7.474-19.573 1.036-.074 1.924-.148 2.516-.148 2.294 0 3.552.407 3.552 3.33 0 3.626-.481 7.992-1.48 10.027a2.693 2.693 0 0 1 -2.738 1.591 21.38 21.38 0 0 1 -4.514-.777l.814 4.85a20.744 20.744 0 0 0 4.366.518c2.812 0 4.81-.814 6.031-3.367 1.554-3.182 2.072-9.028 2.072-13.357 0-5.254-2.738-6.993-6.623-6.993-.74 0-1.85.074-3.071.148.259-1.332.555-2.664.777-3.774.185-.925.407-2.072.629-3.034zm20.461 4.107c-.74-1.369-2.035-3.7-2.96-5.069l-2.923 1.221a40.909 40.909 0 0 1 2.516 4.366l-3.4 1.443c2.627 3.256 5.217 9.731 6.179 13.8l4.662-2.183a72.805 72.805 0 0 0 -5.957-12.765zm21.756 9.213v5.92h-7.03v-5.92zm4.366 10.138v-14.319h-15.692v17.131h4.292v-2.812zm14.245-22.9h-33.341v4.44h24.457v21.975c0 .777-.333 1.036-1.184 1.036-.888 0-4.107.037-6.734-.111a19.956 19.956 0 0 1 1.813 4.662c3.774 0 6.512-.074 8.362-.814 1.739-.74 2.368-2.035 2.368-4.7v-22.051h4.255zm32.523 14.134c3.4 0 4.551-1.369 5.032-6.105a12.162 12.162 0 0 1 -3.885-1.628c-.148 3.219-.407 3.774-1.591 3.774h-4.037c-1.406 0-1.628-.148-1.628-1.48v-2.183a67.891 67.891 0 0 0 9.472-3.478l-2.814-3.185a57.647 57.647 0 0 1 -6.66 3.071v-5.291h-4.366v11.137c0 4.07 1.036 5.365 5.365 5.365zm-23.277 7.656v-2.183h5.55v2.183zm5.55-7.363v1.924h-5.55v-1.924zm4.329-3.626h-13.953v21.238h4.07v-6.993h5.55v2.479c0 .444-.148.555-.592.555a30.74 30.74 0 0 1 -3.256 0 16.282 16.282 0 0 1 1.406 3.885c2.22 0 3.922-.037 5.18-.74 1.221-.629 1.591-1.7 1.591-3.626zm-5.55-9.435c.592.962 1.184 2 1.739 3.034l-4.921.222c.925-1.961 1.924-4.181 2.775-6.327l-4.588-.925a58.454 58.454 0 0 1 -2.7 7.437c-1.036.037-2 .074-2.886.074l.37 4.181c3.774-.222 8.806-.518 13.69-.851a13.665 13.665 0 0 1 .666 1.961l4.033-1.628a36.186 36.186 0 0 0 -4.481-8.587zm14.5 26.6c-1.443 0-1.7-.185-1.7-1.48v-2.96a56.1 56.1 0 0 0 9.879-3.922l-2.923-3.219a41.907 41.907 0 0 1 -6.956 3.478v-4.995h-4.329v11.621c0 4.07 1.073 5.328 5.4 5.328h5.254c3.552 0 4.662-1.443 5.143-6.66a13.7 13.7 0 0 1 -3.848-1.628c-.185 3.737-.444 4.44-1.7 4.44z" fill="#fff" transform="translate(222.25 39.2)"/></g><g fill="#e51a3f"><path d="m21.648-34.7h17.04v25.58c0 .624-.192.864-.816.864-.624.048-2.544.048-4.32-.048a16.588 16.588 0 0 1 1.488 4.752c3.168 0 5.376-.048 6.864-.864 1.584-.864 2.064-2.16 2.064-4.608v-30.288h-27.456v12.432c0 6-.336 14.3-4.08 20.064a20.84 20.84 0 0 1 4.56 2.832c4.032-6.288 4.656-16.08 4.656-22.9zm1.152 9.5v3.84h14.544v-3.84h-5.136v-2.544h4.992v-3.84h-4.992v-2.448h-4.708v2.448h-4.508v3.84h4.508v2.544zm9.168 9.408v3.456h-4.268v-3.456zm-4.268 7.2h8.592v-10.9h-12.868v13.06h4.276zm-14.884-23.136c-1.2-2.352-4.224-5.616-6.72-7.92l-4.512 2.88c2.448 2.4 5.328 5.856 6.384 8.256zm-.672 9.7h-10.224v5.228h4.944v10.608a71.557 71.557 0 0 1 -5.664 4.464l2.688 5.428c2.3-2.064 4.176-3.936 6-5.856 2.88 3.744 6.816 5.136 12.576 5.376 6 .288 16.608.192 22.7-.144a23.807 23.807 0 0 1 1.68-5.328 233.411 233.411 0 0 1 -24.384.432c-4.944-.192-8.448-1.584-10.32-4.848zm52.8-12.672v2.544h-7.392v-2.544zm-7.392 9.12v-2.74h7.392v2.736zm12.72 4.08v-17.332h-18.384v43.008h5.664v-25.676zm8.736-3.984v-2.836h7.632v2.832zm7.632-9.216v2.544h-7.632v-2.544zm-18.72 30.236v-2.976h7.92v2.976zm7.92-9.936v2.88h-7.92v-2.88zm16.56-24.432h-18.816v17.424h13.056v18.768c0 .768-.288 1.056-1.152 1.056-.624.048-2.4.048-4.272 0v-17.04h-18.48v20.784h5.184v-2.448h11.9a21.134 21.134 0 0 1 1.248 4.464c4.128 0 6.912-.144 8.784-1.1 1.924-.916 2.548-2.596 2.548-5.668z" transform="translate(119.252 42.2)"/><path d="m-2.34-.65a.614.614 0 0 0 .65.65h7.8a.614.614 0 0 0 .65-.65v-42.9a.614.614 0 0 0 -.65-.65h-7.28a1.815 1.815 0 0 0 -1.17.39l-7.41 5.33a1.054 1.054 0 0 0 -.455.91v8.06c0 .52.325.65.715.39l7.02-4.81h.13z" transform="translate(100.252 44.2)"/></g></svg>