<svg xmlns="http://www.w3.org/2000/svg" xmlns:xlink="http://www.w3.org/1999/xlink" width="351.367" height="41.604" viewBox="0 0 351.367 41.604">
  <defs>
    <style>
      .cls-1 {
        fill: #fff;
      }

      .cls-2 {
        fill: #e51a3f;
      }

      .cls-3 {
        filter: url(#パス_1394);
      }

      .cls-4 {
        filter: url(#パス_1397);
      }
    </style>
    <filter id="パス_1397" x="0" y="2.142" width="62.16" height="39.459" filterUnits="userSpaceOnUse">
      <feOffset dy="3" input="SourceAlpha"/>
      <feGaussianBlur stdDeviation="3" result="blur"/>
      <feFlood flood-opacity="0.161"/>
      <feComposite operator="in" in2="blur"/>
      <feComposite in="SourceGraphic"/>
    </filter>
    <filter id="パス_1394" x="128.621" y="1.682" width="222.746" height="39.922" filterUnits="userSpaceOnUse">
      <feOffset dy="3" input="SourceAlpha"/>
      <feGaussianBlur stdDeviation="3" result="blur-2"/>
      <feFlood flood-opacity="0.161"/>
      <feComposite operator="in" in2="blur-2"/>
      <feComposite in="SourceGraphic"/>
    </filter>
  </defs>
  <g id="グループ_1511" data-name="グループ 1511" transform="translate(-11.058 -134.4)">
    <g class="cls-4" transform="matrix(1, 0, 0, 1, 11.06, 134.4)">
      <path id="パス_1397-2" data-name="パス 1397" class="cls-1" d="M16.33-16.054H6.578V-17H16.33Zm0,2.622H6.578V-14.4H16.33Zm2.737-5.313H3.956v7.061H19.067ZM17.756-5.727a9.63,9.63,0,0,1-1.564,2.254,8.9,8.9,0,0,1-1.541-2.254ZM5.566-2.99h2.99v.9c-1.012.092-2.024.161-2.99.23Zm0-2.852h2.99v.966H5.566Zm2.99-2.829v.92H5.566v-.92Zm10.81.759-.46.092H11.753v2.093h2.116l-1.518.414a14.086,14.086,0,0,0,2.093,3.4A11.808,11.808,0,0,1,11.178-.253V-8.671H21.712v-2.162H1.265v2.162H3.059v6.992c-.713.069-1.4.092-2,.138L1.265.805C3.289.621,5.911.391,8.556.138V2h2.622V.138A10.167,10.167,0,0,1,12.4,1.978a14.986,14.986,0,0,0,3.91-2.139,12.886,12.886,0,0,0,4.278,2.139,11.329,11.329,0,0,1,1.61-2.139,12.858,12.858,0,0,1-4.048-1.7,13.712,13.712,0,0,0,2.9-5.405ZM44.9-18.561H33.143v2.53H44.9ZM41.515-9.085H36.5v-2.783h5.014Zm2.668-5.175H33.994v7.567H44.183ZM41.86-1.15c.552-1.127,1.173-2.967,1.794-4.646l-2.691-.575a25.262,25.262,0,0,1-1.4,4.692ZM38-1.84a16.164,16.164,0,0,0-1.15-4.393l-2.323.552a18.731,18.731,0,0,1,1.035,4.462ZM33.672-3.335c-.506-.575-2.53-3.013-3.45-3.956.046-.3.069-.575.092-.874h3.013v-2.53H30.475V-14.26h2.576v-2.461H28.037c.184-.736.368-1.495.506-2.254l-2.576-.483a18.059,18.059,0,0,1-2.461,6.946,14.149,14.149,0,0,1,2.323,1.265,18.483,18.483,0,0,0,1.426-3.013h.621v3.565h-3.91v2.53h3.772A12.278,12.278,0,0,1,23.782.069,9.412,9.412,0,0,1,25.668,2,13.083,13.083,0,0,0,29.6-4.439a37.726,37.726,0,0,1,2.323,3.381ZM32.085-.966v2.53H45.218V-.966Z" transform="translate(7.94 27.6)"/>
    </g>
    <g class="cls-3" transform="matrix(1, 0, 0, 1, 11.06, 134.4)">
      <path id="パス_1394-2" data-name="パス 1394" class="cls-1" d="M17.02-11.96l-1.7.713a17.746,17.746,0,0,1,1.794,3.2l1.748-.782A30.143,30.143,0,0,0,17.02-11.96ZM19.6-13.018l-1.679.782a20.234,20.234,0,0,1,1.886,3.1l1.725-.828A34.4,34.4,0,0,0,19.6-13.018ZM1.679-15.732l.3,3.128c2.645-.575,7.429-1.081,9.407-1.288A9.032,9.032,0,0,0,8.027-6.877c0,4.945,4.508,7.521,9.292,7.82l1.058-3.151c-3.864-.184-7.36-1.541-7.36-5.29a6.914,6.914,0,0,1,4.807-6.371,23.521,23.521,0,0,1,4.393-.3l-.023-2.944c-1.61.069-4.094.207-6.44.391-4.163.368-7.935.713-9.844.874C3.473-15.8,2.6-15.755,1.679-15.732ZM29.417-2.047c-.6,0-1.656-.644-1.656-1.334,0-.8.92-1.748,2.323-2.461.046,1.2.069,2.231.069,2.806C30.153-2.254,29.831-2.047,29.417-2.047Zm3.243-8.188c0-.667,0-1.357.023-2.047a43.989,43.989,0,0,0,4.347-.713l-.069-2.852A31.192,31.192,0,0,1,32.775-15c.023-.575.046-1.127.069-1.633.046-.575.138-1.564.184-1.978H29.9a18.081,18.081,0,0,1,.161,2c0,.391,0,1.058-.023,1.863-.46.023-.9.046-1.311.046a24.953,24.953,0,0,1-3.151-.184l.046,2.76c.989.092,2.139.115,3.174.115.368,0,.782-.023,1.219-.046v1.909c0,.529,0,1.058.023,1.587-2.783,1.219-5.106,3.266-5.106,5.267,0,2.415,3.151,4.324,5.382,4.324,1.472,0,2.507-.736,2.507-3.565,0-.782-.069-2.53-.115-4.347A16.169,16.169,0,0,1,36.984-7.5c1.978,0,3.358.9,3.358,2.438,0,1.656-1.472,2.6-3.312,2.921a17.412,17.412,0,0,1-2.806.161L35.282.943a18.557,18.557,0,0,0,2.99-.368c3.611-.9,5.014-2.921,5.014-5.612,0-3.128-2.76-4.991-6.256-4.991a18.539,18.539,0,0,0-4.37.6Zm5.612-3.68A34.6,34.6,0,0,1,43.746-10.6l1.38-2.346a50.315,50.315,0,0,0-5.589-3.2Zm15.41,4.071-1.863.529v-3.312h2.093v-2.507H51.819v-4.324H49.335v4.324H46.92v2.507h2.415v3.979c-1.035.253-2,.506-2.783.667l.6,2.622c.667-.184,1.426-.391,2.185-.621V-.9c0,.3-.115.391-.391.391a18.131,18.131,0,0,1-1.886-.023A11.166,11.166,0,0,1,47.725,2a5.965,5.965,0,0,0,3.2-.506c.69-.437.9-1.127.9-2.392V-6.716c.736-.207,1.472-.437,2.208-.667ZM60.444-8.05h.966A20.915,20.915,0,0,0,63.135-2c-.9.184-1.817.368-2.691.529Zm5.888.437a22.913,22.913,0,0,1-1.978,2.024,20.237,20.237,0,0,1-.575-2.461h4.186v-2.3H57.27c.023-.483.023-.966.023-1.4v-4.393H67.62v-2.346H54.763v6.739c0,3.634-.207,8.671-2.553,12.144A8.728,8.728,0,0,1,54.3,1.955C56.166-.736,56.9-4.623,57.155-8.05h.874v7.015c-.644.092-1.219.207-1.748.276l.529,2.323C58.765,1.15,61.2.667,63.526.138l-.184-1.725a8.429,8.429,0,0,0,3.519,3.542A9.466,9.466,0,0,1,68.54-.276a7,7,0,0,1-3.381-3.335c.943-.644,2-1.495,2.967-2.277ZM67-12.19v-2.231H58.19v2.231Zm7.222-6.348c-.023.644-.069,1.564-.184,2.392a55.236,55.236,0,0,0-.644,7.291,29.464,29.464,0,0,0,.276,3.795L76.5-5.244a13.677,13.677,0,0,1-.115-2.415c.115-2.99,2.461-7.038,5.152-7.038,1.886,0,3.059,1.955,3.059,5.474,0,5.52-3.542,7.176-8.6,7.958L77.717,1.38C83.743.276,87.7-2.806,87.7-9.246c0-5.014-2.461-8.119-5.635-8.119-2.576,0-4.554,1.932-5.635,3.68a37.188,37.188,0,0,1,.92-4.715Zm30.452,4.784c-.713,4.393-2.484,7.82-5.7,9.729a15.1,15.1,0,0,1,2.116,2.07,14.769,14.769,0,0,0,5.4-7.567,12.7,12.7,0,0,0,5.52,7.544,12.255,12.255,0,0,1,2.139-2.093c-4.784-2.392-6.164-7.935-6.509-14.444h-6.325v2.576h4c.069.782.161,1.564.253,2.323Zm-5.7-1.725a18.418,18.418,0,0,0-3.841-3.473L93.1-17.3a17.4,17.4,0,0,1,3.7,3.634Zm-.575,4.922H93.081V-8.05h2.645V-3.2A32.629,32.629,0,0,1,92.6-1.081l1.334,2.852C95.174.805,96.186-.092,97.2-.989c1.5,1.794,3.381,2.438,6.21,2.553,2.737.115,7.36.069,10.12-.069a14.325,14.325,0,0,1,.851-2.76c-3.059.23-8.234.3-10.925.184-2.392-.092-4.117-.713-5.06-2.254ZM121-4.393c-.414.575-.736.782-1.2.782s-.851-.437-.851-1.081c0-1.426,1.38-2.967,3.91-3.358A29.458,29.458,0,0,1,121-4.393ZM136.965-6.21c-.667-.437-1.495-.989-2.438-1.518a37.48,37.48,0,0,0,.437-4.232l-2.99-.345A14.77,14.77,0,0,1,132-9.821c-.023.253-.046.506-.069.782a19.961,19.961,0,0,0-4.9-1.472,44.079,44.079,0,0,1,2.231-4.876,5.332,5.332,0,0,1,.759-.966L128.2-17.779a5.645,5.645,0,0,1-1.541.345c-1.058.092-3.5.184-4.784.184a18.43,18.43,0,0,1-1.886-.092l.115,2.944c.575-.092,1.38-.184,1.863-.207,1.035-.069,2.99-.138,3.887-.161-.529,1.081-1.173,2.622-1.817,4.094-4.577.207-7.774,2.921-7.774,6.44a3.4,3.4,0,0,0,3.5,3.68,3.892,3.892,0,0,0,3.542-2,47.36,47.36,0,0,0,2.645-5.474,15.965,15.965,0,0,1,5.336,1.84,9.822,9.822,0,0,1-5.8,5.727l2.438,1.978A11.409,11.409,0,0,0,133.7-4.646c.69.506,1.357,1.058,1.955,1.587ZM160.54-16.79a27.219,27.219,0,0,0-1.863-3.128l-1.817.759a22.947,22.947,0,0,1,1.863,3.174Zm-15.456-1.495a25.217,25.217,0,0,1-.483,4.83c-1.15.092-2.231.161-2.944.184a21.148,21.148,0,0,1-2.415,0l.253,3.082c.713-.115,1.886-.276,2.53-.345.437-.069,1.15-.161,1.955-.253-.8,3.105-2.369,7.659-4.577,10.649l2.967,1.2c2.093-3.358,3.749-8.717,4.646-12.167.644-.046,1.2-.092,1.564-.092,1.426,0,2.208.253,2.208,2.07a17.39,17.39,0,0,1-.92,6.233,1.674,1.674,0,0,1-1.7.989,13.29,13.29,0,0,1-2.806-.483l.506,3.013a12.9,12.9,0,0,0,2.714.322c1.748,0,2.99-.506,3.749-2.093.966-1.978,1.288-5.612,1.288-8.3,0-3.266-1.7-4.347-4.117-4.347-.46,0-1.15.046-1.909.092.161-.828.345-1.656.483-2.346.115-.575.253-1.288.391-1.886ZM157.8-15.732c-.46-.851-1.265-2.3-1.84-3.151l-1.817.759a25.426,25.426,0,0,1,1.564,2.714l-2.116.9a25.793,25.793,0,0,1,3.841,8.579l2.9-1.357a45.258,45.258,0,0,0-3.7-7.935Zm13.524,5.727v3.68h-4.37v-3.68Zm2.714,6.3v-8.9h-9.752V-1.955h2.668V-3.7ZM182.9-17.94H162.173v2.76h15.2V-1.518c0,.483-.207.644-.736.644-.552,0-2.553.023-4.186-.069a12.405,12.405,0,0,1,1.127,2.9,15.532,15.532,0,0,0,5.2-.506c1.081-.46,1.472-1.265,1.472-2.921V-15.18H182.9Zm20.217,8.786c2.116,0,2.829-.851,3.128-3.8a7.561,7.561,0,0,1-2.415-1.012c-.092,2-.253,2.346-.989,2.346H200.33c-.874,0-1.012-.092-1.012-.92v-1.357a42.2,42.2,0,0,0,5.888-2.162l-1.748-1.978a35.835,35.835,0,0,1-4.14,1.909v-3.289H196.6v6.923c0,2.53.644,3.335,3.335,3.335ZM188.646-4.393V-5.75h3.45v1.357ZM192.1-8.97v1.2h-3.45v-1.2Zm2.691-2.254h-8.671v13.2h2.53V-2.369h3.45V-.828c0,.276-.092.345-.368.345a19.108,19.108,0,0,1-2.024,0,10.121,10.121,0,0,1,.874,2.415,6.817,6.817,0,0,0,3.22-.46c.759-.391.989-1.058.989-2.254Zm-3.45-5.865c.368.6.736,1.242,1.081,1.886l-3.059.138c.575-1.219,1.2-2.6,1.725-3.933l-2.852-.575a36.331,36.331,0,0,1-1.679,4.623c-.644.023-1.242.046-1.794.046l.23,2.6c2.346-.138,5.474-.322,8.51-.529a8.494,8.494,0,0,1,.414,1.219l2.507-1.012a22.494,22.494,0,0,0-2.783-5.336ZM200.353-.552c-.9,0-1.058-.115-1.058-.92v-1.84a34.869,34.869,0,0,0,6.141-2.438l-1.817-2a26.051,26.051,0,0,1-4.324,2.162V-8.694H196.6v7.222c0,2.53.667,3.312,3.358,3.312h3.266c2.208,0,2.9-.9,3.2-4.14a8.515,8.515,0,0,1-2.392-1.012c-.115,2.323-.276,2.76-1.058,2.76Z" transform="translate(135.94 27.6)"/>
    </g>
    <path id="パス_1395" data-name="パス 1395" class="cls-2" d="M13.079-20.967h10.3V-5.51c0,.377-.116.522-.493.522-.377.029-1.537.029-2.61-.029a10.022,10.022,0,0,1,.9,2.871c1.914,0,3.248-.029,4.147-.522.957-.522,1.247-1.3,1.247-2.784v-18.3H9.976v7.511c0,3.625-.2,8.642-2.465,12.122a12.591,12.591,0,0,1,2.755,1.711c2.436-3.8,2.813-9.715,2.813-13.833Zm.7,5.742v2.32h8.787v-2.32h-3.1v-1.537h3.016v-2.32H19.459v-1.479H16.617v1.479H13.891v2.32h2.726v1.537Zm5.539,5.684v2.088H16.733V-9.541Zm-2.581,4.35h5.191v-6.583H14.152v7.888h2.581ZM7.743-19.169a21.361,21.361,0,0,0-4.06-4.785L.957-22.214a19.97,19.97,0,0,1,3.857,4.988Zm-.406,5.858H1.16v3.161H4.147v6.409a43.232,43.232,0,0,1-3.422,2.7L2.349,2.233C3.741.986,4.872-.145,5.974-1.305c1.74,2.262,4.118,3.1,7.6,3.248,3.625.174,10.034.116,13.717-.087A14.383,14.383,0,0,1,28.3-1.363,141.019,141.019,0,0,1,13.572-1.1c-2.987-.116-5.1-.957-6.235-2.929Zm31.9-7.656v1.537H34.771v-1.537Zm-4.466,5.51V-17.11h4.466v1.653Zm7.685,2.465V-23.461H31.349V2.523h3.422V-12.992ZM47.734-15.4V-17.11h4.611V-15.4Zm4.611-5.568v1.537H47.734v-1.537ZM41.035-2.7v-1.8H45.82v1.8Zm4.785-6v1.74H41.035V-8.7ZM55.825-23.461H44.457v10.527h7.888V-1.6c0,.464-.174.638-.7.638-.377.029-1.45.029-2.581,0v-10.3H37.9V1.305h3.132V-.174h7.192a12.769,12.769,0,0,1,.754,2.7c2.494,0,4.176-.087,5.307-.667,1.16-.551,1.537-1.566,1.537-3.422Z" transform="translate(86 163)"/>
    <path id="パス_1396" data-name="パス 1396" class="cls-2" d="M-1.62-.45A.425.425,0,0,0-1.17,0h5.4a.425.425,0,0,0,.45-.45v-29.7a.425.425,0,0,0-.45-.45H-.81a1.256,1.256,0,0,0-.81.27l-5.13,3.69a.73.73,0,0,0-.315.63v5.58c0,.36.225.45.495.27l4.86-3.33h.09Z" transform="translate(75 165)"/>
  </g>
</svg>
