<svg height="121.038" viewBox="0 0 342.83 121.038" width="342.83" xmlns="http://www.w3.org/2000/svg" xmlns:xlink="http://www.w3.org/1999/xlink"><filter id="a" filterUnits="userSpaceOnUse" height="54.582" width="283.291" x="26.834" y="0"><feOffset dy="3"/><feGaussianBlur result="blur" stdDeviation="3"/><feFlood flood-opacity=".161"/><feComposite in2="blur" operator="in"/><feComposite in="SourceGraphic"/></filter><filter id="b" filterUnits="userSpaceOnUse" height="68.655" width="342.83" x="0" y="52.383"><feOffset dy="3"/><feGaussianBlur result="blur-2" stdDeviation="3"/><feFlood flood-opacity=".161"/><feComposite in2="blur-2" operator="in"/><feComposite in="SourceGraphic"/></filter><g filter="url(#a)" transform="translate(0 .003)"><path d="m37.05-18.525v-4.8h-15.95c.273-3.393.312-6.669.351-9.672h-5.071c-.039 2.964 0 6.279-.312 9.672h-13.806v4.8h13.143c-1.405 7.025-5.07 13.806-14.391 17.979a14.274 14.274 0 0 1 3.471 3.939 28.022 28.022 0 0 0 10.179-8 48.652 48.652 0 0 1 6.708 7.371l4.29-3.2a50.338 50.338 0 0 0 -7.215-7.215l-3.2 2.223a29.064 29.064 0 0 0 4.485-9.75c3 8.385 7.566 14.9 14.9 18.564a18.62 18.62 0 0 1 3.468-4.322c-7.29-3.159-12.048-9.711-14.622-17.589zm32.487-7.956h-8.853v-1.872h8.853zm0 4.953h-8.853v-1.911h8.853zm4.446-10.1h-17.433v13.338h17.433zm2.73 18.486v-3.628h-23.2v3.627h4.1a18.58 18.58 0 0 1 -4.69 5.343 8.974 8.974 0 0 0 .585-3.549 12.007 12.007 0 0 0 -2.847-7.839c1.092-3.042 2.379-7.293 3.393-10.608l-3.042-1.755-.663.195h-8.463v34.749h4.014v-30.615h3.042c-.624 2.652-1.443 6.045-2.223 8.5a10.439 10.439 0 0 1 2.694 6.822c0 1.092-.156 1.872-.585 2.184a2.02 2.02 0 0 1 -1.092.351c-.468 0-1.014 0-1.716-.039a9.833 9.833 0 0 1 1.014 3.944 16.483 16.483 0 0 0 2.5-.078 6.143 6.143 0 0 0 2.067-.7 27.218 27.218 0 0 1 2.379 2.457 21.717 21.717 0 0 0 4.368-3.939h1.872a22.2 22.2 0 0 1 -7.882 7.33 28.576 28.576 0 0 1 2.535 2.89 28.634 28.634 0 0 0 9.516-10.222h1.95a20.807 20.807 0 0 1 -6.513 8.422 30.246 30.246 0 0 1 2.847 2.574 27.857 27.857 0 0 0 7.683-11h.936c-.312 4.563-.663 6.435-1.131 6.981a1.162 1.162 0 0 1 -1.092.468c-.507 0-1.4-.039-2.5-.156a9.751 9.751 0 0 1 1.014 3.822 26.288 26.288 0 0 0 3.744-.117 3.588 3.588 0 0 0 2.383-1.361c.975-1.092 1.482-4.173 1.872-11.661l.117-1.56h-14.82a16.5 16.5 0 0 0 .975-1.833zm31.239-18.525a48.379 48.379 0 0 1 -4.524 9.75l4.056 1.521a86.209 86.209 0 0 0 5.382-9.594zm-16.575 9.71a41.2 41.2 0 0 0 -4.368-9.443l-4.173 1.6a45.467 45.467 0 0 1 4.017 9.633zm14.823 20.865c-1.287 0-1.482-.234-1.482-1.6v-11.738h10.332v-4.37h-15.366v-14.233h-4.684v14.233h-14.972v4.368h9.516c-.544 6.359-1.599 11.156-10.53 13.808a13.064 13.064 0 0 1 2.808 4.056c10.218-3.432 12.012-9.672 12.678-17.862h5.538v11.778c0 4.446 1.092 5.928 5.5 5.928h4.641c3.861 0 5.031-1.833 5.5-8.658a14.283 14.283 0 0 1 -4.251-1.872c-.156 5.3-.39 6.162-1.638 6.162zm32.526-9.984h-4.8v-4.407h4.8zm8.385-4.407v-1.248a27.177 27.177 0 0 0 4.8 2.925 17.689 17.689 0 0 1 3.2-4.017 23.932 23.932 0 0 1 -6.045-3.549 64.018 64.018 0 0 0 5.148-4.212l-3.401-2.416a37.777 37.777 0 0 1 -4.368 4.212c-.624-.663-1.209-1.326-1.755-2.028 1.6-1.17 3.393-2.691 4.992-4.134l-3.51-2.5a36.828 36.828 0 0 1 -3.471 3.627 27.09 27.09 0 0 1 -1.95-4.173l-4.173 1.17a35.68 35.68 0 0 0 7.1 11.934h-14.12a26.731 26.731 0 0 0 6.357-10.374l-3.12-1.443-.819.156h-10.176v3.978h7.956a21.817 21.817 0 0 1 -2.457 3.51c-1.092-.936-2.574-2.067-3.744-2.886l-2.925 2.418a41.624 41.624 0 0 1 3.861 3.315 24.129 24.129 0 0 1 -6.474 4.017 20.167 20.167 0 0 1 2.808 3.51 31.877 31.877 0 0 0 5.187-3.081v1.287h3.276v4.407h-8.346v4.251h7.722c-.975 2.613-3.315 5.031-8.7 6.669a17.677 17.677 0 0 1 2.964 3.705c7.215-2.418 9.789-6.279 10.647-10.374h5.148v4.251c0 4.329 1.053 5.694 5.265 5.694h4.251c3.432 0 4.641-1.56 5.109-6.708a11.548 11.548 0 0 1 -4.173-1.833c-.156 3.666-.351 4.446-1.365 4.446h-3c-1.092 0-1.248-.234-1.248-1.638v-4.21h8.307v-4.251h-8.307v-4.407zm15.4-8.19h10.608v8.112h4.524v-8.112h10.727v4.836h4.29v-7.917h-15.015v-1.482h12.168v-3.432h-28.743v3.432h12.051v1.482h-14.7v7.917h4.1zm16.614 7.722h8.5v-2.535h-8.5zm0-6.4v2.5h7.6v-2.5zm-7.41 0h-7.683v2.5h7.683zm-8.424 6.4h8.424v-2.535h-8.424zm3.12 10.764v-1.677h6.474v1.677zm6.474-6.2v1.716h-6.474v-1.716zm11.505 1.716h-7.059v-1.716h7.059zm-7.059 4.485v-1.678h7.059v1.677zm2.808 4.914c-2.379 0-2.808-.234-2.808-1.677v-.117h11.661v-12.442h-26.986v14.157h4.407v-1.716h6.474v.117c0 4.1 1.482 5.226 6.825 5.226h8.19c4.251 0 5.5-1.287 6.045-5.967a11.86 11.86 0 0 1 -3.861-1.482c-.273 3.315-.624 3.9-2.574 3.9zm34.242-30.849h-17.236v4.212h17.238zm-5.265 11.271v4.95h-6.279v-4.953zm4.485 9.126v-13.26h-15.169v9.906c0 4.485-.234 10.569-2.808 14.742a20.092 20.092 0 0 1 3.666 2.769c2.418-3.822 3.237-9.4 3.471-14.157zm19.188-9.165h-12.517v-5.07a64.044 64.044 0 0 0 12.285-4.173l-4.1-3.51a43.754 43.754 0 0 1 -9.516 3.822l-3.2-.741v10.761c0 5.772-.546 13.494-5.967 18.993a11.46 11.46 0 0 1 3.432 3.12c5.187-5.187 6.63-12.753 6.981-18.72h4.524v18.8h4.6v-18.8h3.471zm10.766 13.589c-1.295 0-2.695-1.715-2.695-5.215a10.868 10.868 0 0 1 8.785-10.045 55.634 55.634 0 0 1 -1.855 8.4c-1.4 4.69-2.8 6.86-4.235 6.86zm9.52 7.735c8.75-1.33 13.23-6.51 13.23-13.79 0-7.56-5.425-13.545-14-13.545-8.995 0-15.96 6.86-15.96 14.84 0 5.845 3.255 10.08 7.07 10.08 3.78 0 6.79-4.27 8.855-11.27a75.323 75.323 0 0 0 2.065-9.415c4.655.805 7.245 4.375 7.245 9.17 0 5.04-3.43 8.225-7.875 9.275-.91.21-1.89.385-3.22.56z" fill="#fff" transform="translate(34.82 39.03)"/></g><g filter="url(#b)" transform="translate(0 .003)"><path d="m-123.64-40.645a19.857 19.857 0 0 1 -5.72.715h-19.36a61.447 61.447 0 0 1 -6.49-.385v7.81c1.155-.055 4.18-.385 6.49-.385h18.645c-1.21 3.9-4.565 9.35-8.2 13.475-5.17 5.775-13.695 12.43-22.55 15.785l5.665 5.94a72.448 72.448 0 0 0 20.68-15.455 125.42 125.42 0 0 1 13.865 15.565l6.27-5.445a154.616 154.616 0 0 0 -15.345-15.73 80.864 80.864 0 0 0 8.635-15.125 25.989 25.989 0 0 1 1.925-3.41zm59.345 4.785a3.181 3.181 0 0 1 -3.135-3.19 3.181 3.181 0 0 1 3.135-3.19 3.192 3.192 0 0 1 3.19 3.19 3.192 3.192 0 0 1 -3.19 3.19zm-29.26-.6a41.971 41.971 0 0 1 .44-5.72h-8.14a46.276 46.276 0 0 1 .44 5.72v29.97c0 4.73 2.75 7.37 7.535 8.2a60.366 60.366 0 0 0 9.24.66 156.29 156.29 0 0 0 19.58-1.16v-8.03c-4.51 1.21-13.42 1.925-19.14 1.925a51.44 51.44 0 0 1 -6.38-.33c-2.475-.5-3.575-1.1-3.575-3.465v-10.175a189.844 189.844 0 0 0 21.555-6.71c1.815-.66 4.29-1.7 6.435-2.585l-2.25-5.34a6.317 6.317 0 0 0 3.52 1.045 6.619 6.619 0 0 0 6.6-6.6 6.619 6.619 0 0 0 -6.6-6.6 6.572 6.572 0 0 0 -6.545 6.6 6.7 6.7 0 0 0 1.6 4.345 32.736 32.736 0 0 1 -5.28 2.53 138.706 138.706 0 0 1 -19.03 6.1zm43.615 19.63c2.035-.165 5.72-.275 8.855-.275h29.535c2.31 0 5.115.22 6.435.275v-8.635c-1.43.11-3.905.33-6.435.33h-29.535c-2.86 0-6.875-.165-8.855-.33zm99.825-18.975a72.84 72.84 0 0 0 -5.17-8.14l-4.565 2.145a51.5 51.5 0 0 1 5.115 8.25zm-7.37 3.19c-1.265-2.475-3.465-6-5.005-8.305l-4.62 1.98a44.812 44.812 0 0 1 4.84 8.47zm-19.415-3.465a59.814 59.814 0 0 1 .5-6.655h-8.58a38.811 38.811 0 0 1 .55 6.655v31.625a59.557 59.557 0 0 1 -.55 7.645h8.63c-.275-2.255-.55-6.1-.55-7.645v-15.565a147.343 147.343 0 0 1 19.91 8.2l3.08-7.645a191.342 191.342 0 0 0 -22.99-8.585zm74.965.44h-6.93v-3.8h6.93zm-12.375 0h-6.655v-3.8h6.655zm-12.1 0h-6.6v-3.8h6.6zm30.8-8.69h-43.45v13.53h43.45zm-33.88 33.055h24.09v2.75h-24.09zm0-6.6h24.09v2.75h-24.09zm0-6.545h24.09v2.695h-24.09zm30.965 20.02v-24.145h-37.565v24.145h8.47a66.9 66.9 0 0 1 -15.29 4.62 44.207 44.207 0 0 1 4.84 4.785c5.72-1.595 12.925-4.235 17.545-7.26l-4.785-2.145h15.345l-4.455 2.86a117.7 117.7 0 0 1 15.455 6.38l7.1-3.245c-3.85-1.7-10.175-4.125-16.005-6zm35.145-33.055h1.925v4.29h16.225a62.383 62.383 0 0 1 -4.73 16.39 66.324 66.324 0 0 1 -5.06-16.28l-6.27 1.265c1.7 8.305 4.07 15.675 7.425 21.78a29.819 29.819 0 0 1 -9.515 8.745zm-14.135 22.44h7.81v4.95c-2.64.33-5.28.715-7.81 1.045zm0-11.33h7.81v5.5h-7.81zm7.81-11.11v5.225h-7.81v-5.225zm27.39-2.31-1.1.165h-16.445v-3.9h-27.61v6.05h3.74v29.2c-1.87.22-3.575.385-5.06.55l1.265 6.545c5.06-.77 11.5-1.76 17.82-2.86v8.8h6.325v-5.17a26.16 26.16 0 0 1 3.63 4.785 37.678 37.678 0 0 0 9.79-8.415 34.7 34.7 0 0 0 9.46 8.415 23.741 23.741 0 0 1 4.51-5.39 30.253 30.253 0 0 1 -9.955-8.91c4.125-7.37 6.765-16.83 7.92-28.82z" fill="#fff" transform="translate(169.82 104.03)"/></g></svg>