<svg xmlns="http://www.w3.org/2000/svg" width="324.83" height="103.038" viewBox="0 0 324.83 103.038">
  <defs>
    <style>
      .cls-1 {
        fill: #fff;
      }
    </style>
  </defs>
  <g id="グループ_1751" data-name="グループ 1751" transform="translate(-27 -183.967)">
    <path id="パス_1430" data-name="パス 1430" class="cls-1" d="M37.05-18.525v-4.8H21.1c.273-3.393.312-6.669.351-9.672H16.38c-.039,2.964,0,6.279-.312,9.672H2.262v4.8H15.405C14-11.5,10.335-4.719,1.014-.546A14.274,14.274,0,0,1,4.485,3.393a28.022,28.022,0,0,0,10.179-8,48.652,48.652,0,0,1,6.708,7.371l4.29-3.2a50.338,50.338,0,0,0-7.215-7.215l-3.2,2.223a29.064,29.064,0,0,0,4.485-9.75c3,8.385,7.566,14.9,14.9,18.564A18.62,18.62,0,0,1,38.1-.936C30.81-4.095,26.052-10.647,23.478-18.525Zm32.487-7.956H60.684v-1.872h8.853Zm0,4.953H60.684v-1.911h8.853Zm4.446-10.1H56.55v13.338H73.983Zm2.73,18.486V-16.77h-23.2v3.627h4.1A18.58,18.58,0,0,1,52.923-7.8a8.974,8.974,0,0,0,.585-3.549,12.007,12.007,0,0,0-2.847-7.839c1.092-3.042,2.379-7.293,3.393-10.608l-3.042-1.755-.663.195H41.886V3.393H45.9V-27.222h3.042c-.624,2.652-1.443,6.045-2.223,8.5A10.439,10.439,0,0,1,49.413-11.9c0,1.092-.156,1.872-.585,2.184a2.02,2.02,0,0,1-1.092.351c-.468,0-1.014,0-1.716-.039A9.833,9.833,0,0,1,47.034-5.46a16.483,16.483,0,0,0,2.5-.078,6.143,6.143,0,0,0,2.067-.7,27.218,27.218,0,0,1,2.379,2.457,21.717,21.717,0,0,0,4.368-3.939h1.872A22.2,22.2,0,0,1,52.338-.39,28.576,28.576,0,0,1,54.873,2.5,28.634,28.634,0,0,0,64.389-7.722h1.95A20.807,20.807,0,0,1,59.826.7a30.246,30.246,0,0,1,2.847,2.574,27.857,27.857,0,0,0,7.683-11h.936c-.312,4.563-.663,6.435-1.131,6.981a1.162,1.162,0,0,1-1.092.468c-.507,0-1.4-.039-2.5-.156a9.751,9.751,0,0,1,1.014,3.822,26.288,26.288,0,0,0,3.744-.117A3.588,3.588,0,0,0,73.71,1.911C74.685.819,75.192-2.262,75.582-9.75l.117-1.56H60.879a16.5,16.5,0,0,0,.975-1.833Zm31.239-18.525a48.379,48.379,0,0,1-4.524,9.75l4.056,1.521a86.209,86.209,0,0,0,5.382-9.594ZM91.377-21.957A41.2,41.2,0,0,0,87.009-31.4l-4.173,1.6a45.467,45.467,0,0,1,4.017,9.633ZM106.2-1.092c-1.287,0-1.482-.234-1.482-1.6V-14.43H115.05V-18.8H99.684V-33.033H95V-18.8H80.028v4.368h9.516C89-8.073,87.945-3.276,79.014-.624a13.064,13.064,0,0,1,2.808,4.056C92.04,0,93.834-6.24,94.5-14.43h5.538V-2.652c0,4.446,1.092,5.928,5.5,5.928h4.641c3.861,0,5.031-1.833,5.5-8.658a14.283,14.283,0,0,1-4.251-1.872c-.156,5.3-.39,6.162-1.638,6.162Zm32.526-9.984h-4.8v-4.407h4.8Zm8.385-4.407v-1.248a27.177,27.177,0,0,0,4.8,2.925,17.689,17.689,0,0,1,3.2-4.017,23.932,23.932,0,0,1-6.045-3.549,64.018,64.018,0,0,0,5.148-4.212L150.813-28a37.777,37.777,0,0,1-4.368,4.212c-.624-.663-1.209-1.326-1.755-2.028,1.6-1.17,3.393-2.691,4.992-4.134l-3.51-2.5a36.828,36.828,0,0,1-3.471,3.627,27.09,27.09,0,0,1-1.95-4.173l-4.173,1.17a35.68,35.68,0,0,0,7.1,11.934H129.558a26.731,26.731,0,0,0,6.357-10.374l-3.12-1.443-.819.156H121.8v3.978h7.956a21.817,21.817,0,0,1-2.457,3.51c-1.092-.936-2.574-2.067-3.744-2.886l-2.925,2.418a41.624,41.624,0,0,1,3.861,3.315,24.129,24.129,0,0,1-6.474,4.017,20.167,20.167,0,0,1,2.808,3.51,31.877,31.877,0,0,0,5.187-3.081v1.287h3.276v4.407h-8.346v4.251h7.722c-.975,2.613-3.315,5.031-8.7,6.669a17.677,17.677,0,0,1,2.964,3.705c7.215-2.418,9.789-6.279,10.647-10.374h5.148v4.251c0,4.329,1.053,5.694,5.265,5.694h4.251c3.432,0,4.641-1.56,5.109-6.708a11.548,11.548,0,0,1-4.173-1.833c-.156,3.666-.351,4.446-1.365,4.446h-3c-1.092,0-1.248-.234-1.248-1.638V-6.825h8.307v-4.251h-8.307v-4.407Zm15.4-8.19h10.608v8.112h4.524v-8.112H188.37v4.836h4.29v-7.917H177.645v-1.482h12.168v-3.432H161.07v3.432h12.051v1.482h-14.7v7.917h4.1Zm16.614,7.722h8.5v-2.535h-8.5Zm0-6.4v2.5h7.6v-2.5Zm-7.41,0h-7.683v2.5h7.683Zm-8.424,6.4h8.424v-2.535h-8.424Zm3.12,10.764V-6.864h6.474v1.677Zm6.474-6.2v1.716h-6.474v-1.716Zm11.505,1.716h-7.059v-1.716h7.059Zm-7.059,4.485V-6.864h7.059v1.677Zm2.808,4.914c-2.379,0-2.808-.234-2.808-1.677v-.117h11.661V-14.508H162.006V-.351h4.407V-2.067h6.474v.117c0,4.1,1.482,5.226,6.825,5.226h8.19c4.251,0,5.5-1.287,6.045-5.967a11.86,11.86,0,0,1-3.861-1.482c-.273,3.315-.624,3.9-2.574,3.9Zm34.242-30.849H197.145v4.212h17.238Zm-5.265,11.271V-14.9h-6.279v-4.953Zm4.485,9.126v-13.26H198.432v9.906c0,4.485-.234,10.569-2.808,14.742a20.092,20.092,0,0,1,3.666,2.769c2.418-3.822,3.237-9.4,3.471-14.157Zm19.188-9.165H220.272v-5.07a64.044,64.044,0,0,0,12.285-4.173l-4.1-3.51a43.754,43.754,0,0,1-9.516,3.822l-3.2-.741V-18.8c0,5.772-.546,13.494-5.967,18.993a11.46,11.46,0,0,1,3.432,3.12c5.187-5.187,6.63-12.753,6.981-18.72h4.524v18.8h4.6v-18.8h3.471ZM243.555-6.3c-1.295,0-2.695-1.715-2.695-5.215a10.868,10.868,0,0,1,8.785-10.045,55.634,55.634,0,0,1-1.855,8.4C246.39-8.47,244.99-6.3,243.555-6.3Zm9.52,7.735c8.75-1.33,13.23-6.51,13.23-13.79,0-7.56-5.425-13.545-14-13.545-8.995,0-15.96,6.86-15.96,14.84,0,5.845,3.255,10.08,7.07,10.08,3.78,0,6.79-4.27,8.855-11.27a75.323,75.323,0,0,0,2.065-9.415c4.655.805,7.245,4.375,7.245,9.17,0,5.04-3.43,8.225-7.875,9.275-.91.21-1.89.385-3.22.56Z" transform="translate(55.986 217)"/>
    <path id="パス_1431" data-name="パス 1431" class="cls-1" d="M-123.64-40.645a19.857,19.857,0,0,1-5.72.715h-19.36a61.447,61.447,0,0,1-6.49-.385v7.81c1.155-.055,4.18-.385,6.49-.385h18.645c-1.21,3.9-4.565,9.35-8.2,13.475-5.17,5.775-13.695,12.43-22.55,15.785l5.665,5.94a72.448,72.448,0,0,0,20.68-15.455A125.42,125.42,0,0,1-120.615,2.42l6.27-5.445a154.616,154.616,0,0,0-15.345-15.73,80.864,80.864,0,0,0,8.635-15.125,25.989,25.989,0,0,1,1.925-3.41Zm59.345,4.785a3.181,3.181,0,0,1-3.135-3.19,3.181,3.181,0,0,1,3.135-3.19,3.192,3.192,0,0,1,3.19,3.19A3.192,3.192,0,0,1-64.295-35.86Zm-29.26-.6a41.971,41.971,0,0,1,.44-5.72h-8.14a46.276,46.276,0,0,1,.44,5.72V-6.49c0,4.73,2.75,7.37,7.535,8.2a60.366,60.366,0,0,0,9.24.66A156.29,156.29,0,0,0-64.46,1.21V-6.82C-68.97-5.61-77.88-4.895-83.6-4.895a51.44,51.44,0,0,1-6.38-.33c-2.475-.5-3.575-1.1-3.575-3.465V-18.865A189.844,189.844,0,0,0-72-25.575c1.815-.66,4.29-1.7,6.435-2.585L-67.815-33.5a6.317,6.317,0,0,0,3.52,1.045,6.619,6.619,0,0,0,6.6-6.6,6.619,6.619,0,0,0-6.6-6.6,6.572,6.572,0,0,0-6.545,6.6,6.7,6.7,0,0,0,1.6,4.345,32.736,32.736,0,0,1-5.28,2.53,138.706,138.706,0,0,1-19.03,6.1ZM-49.94-16.83c2.035-.165,5.72-.275,8.855-.275H-11.55c2.31,0,5.115.22,6.435.275v-8.635c-1.43.11-3.905.33-6.435.33H-41.085c-2.86,0-6.875-.165-8.855-.33ZM49.885-35.805a72.84,72.84,0,0,0-5.17-8.14L40.15-41.8a51.5,51.5,0,0,1,5.115,8.25Zm-7.37,3.19c-1.265-2.475-3.465-6-5.005-8.305l-4.62,1.98a44.812,44.812,0,0,1,4.84,8.47ZM23.1-36.08a59.814,59.814,0,0,1,.5-6.655h-8.58a38.811,38.811,0,0,1,.55,6.655V-4.455a59.557,59.557,0,0,1-.55,7.645H23.65c-.275-2.255-.55-6.1-.55-7.645V-20.02a147.343,147.343,0,0,1,19.91,8.2l3.08-7.645A191.342,191.342,0,0,0,23.1-28.05Zm74.965.44h-6.93v-3.8h6.93Zm-12.375,0H79.035v-3.8H85.69Zm-12.1,0h-6.6v-3.8h6.6Zm30.8-8.69H60.94V-30.8h43.45ZM70.51-11.275H94.6v2.75H70.51Zm0-6.6H94.6v2.75H70.51Zm0-6.545H94.6v2.695H70.51ZM101.475-4.4V-28.545H63.91V-4.4h8.47A66.9,66.9,0,0,1,57.09.22a44.207,44.207,0,0,1,4.84,4.785C67.65,3.41,74.855.77,79.475-2.255L74.69-4.4H90.035L85.58-1.54a117.7,117.7,0,0,1,15.455,6.38l7.1-3.245c-3.85-1.7-10.175-4.125-16.005-6ZM136.62-37.455h1.925v4.29H154.77a62.383,62.383,0,0,1-4.73,16.39,66.324,66.324,0,0,1-5.06-16.28l-6.27,1.265c1.7,8.305,4.07,15.675,7.425,21.78a29.819,29.819,0,0,1-9.515,8.745Zm-14.135,22.44h7.81v4.95c-2.64.33-5.28.715-7.81,1.045Zm0-11.33h7.81v5.5h-7.81Zm7.81-11.11v5.225h-7.81v-5.225Zm27.39-2.31-1.1.165H140.14v-3.9H112.53v6.05h3.74v29.2c-1.87.22-3.575.385-5.06.55l1.265,6.545c5.06-.77,11.5-1.76,17.82-2.86v8.8h6.325V-.385A26.16,26.16,0,0,1,140.25,4.4a37.678,37.678,0,0,0,9.79-8.415A34.7,34.7,0,0,0,159.5,4.4a23.741,23.741,0,0,1,4.51-5.39,30.253,30.253,0,0,1-9.955-8.91c4.125-7.37,6.765-16.83,7.92-28.82Z" transform="translate(187.82 282)"/>
  </g>
</svg>
